Coordinates
version=1
nRows=29
nColumns=24
inDegrees=yes

Units are S.I. units (second, meters, Newtons, ...)
Angles are in degrees.

endheader
time	pelvis_tilt	pelvis_list	pelvis_rotation	pelvis_tx	pelvis_ty	pelvis_tz	hip_flexion_r	hip_adduction_r	hip_rotation_r	knee_angle_r	ankle_angle_r	subtalar_angle_r	mtp_angle_r	hip_flexion_l	hip_adduction_l	hip_rotation_l	knee_angle_l	ankle_angle_l	subtalar_angle_l	mtp_angle_l	lumbar_extension	lumbar_bending	lumbar_rotation
      1.00816667	     -1.63949157	     -0.39152668	     -1.94307812	     -0.11267604	      1.05718780	      0.30046312	    -11.34559027	      2.05577579	      2.54837870	    -11.16709708	     15.97540362	     -5.38163113	      2.91718703	     23.61621558	     -2.47480628	     -3.00526561	     -6.01571223	      6.67947348	      8.61451597	      8.50479076	    -11.00124874	      3.43076335	      2.25894098
      1.01233333	     -1.59682193	     -0.35701159	     -2.01681256	     -0.10656736	      1.05643906	      0.30006706	    -11.48460871	      1.94772883	      2.45249666	    -11.71558150	     16.14253971	     -5.00591290	      2.99013538	     23.64891281	     -2.38741440	     -2.91701115	     -6.53598656	      6.51488294	      8.44223136	      8.55416019	    -11.01007318	      3.34980033	      2.30905677
      1.01650000	     -1.54600507	     -0.33194642	     -2.08449798	     -0.10046255	      1.05577215	      0.29970485	    -11.64732239	      1.86533152	      2.51134846	    -12.22582747	     16.10012735	     -4.98759002	      3.00634593	     23.69119670	     -2.31397365	     -2.85057089	     -7.15385920	      6.34478671	      8.33340820	      8.56175366	    -11.05216168	      3.28409238	      2.30402192
      1.02066667	     -1.49960022	     -0.30255693	     -2.16825278	     -0.09436633	      1.05514734	      0.29932169	    -11.73821221	      1.75905896	      2.43488031	    -12.87492169	     16.20985863	     -4.62727040	      3.11782806	     23.72648461	     -2.23702085	     -2.73963338	     -7.80432379	      6.16350449	      8.12679238	      8.61658129	    -11.07742191	      3.21174409	      2.35203804
      1.02483333	     -1.45504020	     -0.27394207	     -2.23020345	     -0.08823975	      1.05457078	      0.29891063	    -11.82594006	      1.65996003	      2.37534994	    -13.52273099	     16.18154255	     -4.39025090	      3.28177029	     23.77524896	     -2.15529748	     -2.62758304	     -8.52029133	      5.93944557	      7.92383095	      8.68971064	    -11.09078180	      3.13678542	      2.37261007
      1.02900000	     -1.42634211	     -0.25691590	     -2.29778185	     -0.08211070	      1.05403705	      0.29850177	    -11.87180046	      1.57327868	      2.34426041	    -14.21637931	     16.10658237	     -4.18282824	      3.48377941	     23.84477883	     -2.09061772	     -2.51340382	     -9.28775500	      5.72256487	      7.72668173	      8.76592634	    -11.09379240	      3.07976665	      2.39049175
      1.03316667	     -1.35040814	     -0.23475756	     -2.36365168	     -0.07598813	      1.05365612	      0.29812936	    -11.96390125	      1.48826068	      2.38194788	    -14.90945281	     15.90818785	     -4.15965970	      3.52076211	     23.86428525	     -2.02583858	     -2.44025955	    -10.08996376	      5.49815066	      7.59651136	      8.77524953	    -11.16477087	      2.99671913	      2.37906903
      1.03733333	     -1.32170497	     -0.20912031	     -2.42001006	     -0.06984771	      1.05323285	      0.29764282	    -11.93022532	      1.37621688	      2.21243727	    -15.75962454	     15.84559047	     -3.73865180	      3.89741890	     23.92608963	     -1.94424790	     -2.29491184	    -10.90018818	      5.25296632	      7.32231004	      8.87239082	    -11.14259600	      2.91519540	      2.41095495
      1.04150000	     -1.23353674	     -0.20700774	     -2.49059387	     -0.06375713	      1.05300305	      0.29725224	    -11.97098646	      1.30638196	      2.24754712	    -16.56870203	     15.54610779	     -3.70208149	      3.94746928	     23.92734068	     -1.90367144	     -2.20961328	    -11.74243706	      5.05231917	      7.18342078	      8.88125637	    -11.24799878	      2.86472860	      2.40144828
      1.04566667	     -1.21878649	     -0.21261306	     -2.54205891	     -0.05762597	      1.05271154	      0.29672501	    -11.87260845	      1.22511658	      2.10002880	    -17.48857353	     15.20769183	     -3.44094720	      8.57735969	     23.98625075	     -1.84877966	     -1.99407652	    -12.55520102	      4.78674417	      6.80172574	      9.68542343	    -11.21478475	      2.84238423	      2.41838950
      1.04983333	     -1.15300871	     -0.22652779	     -2.59708219	     -0.05151900	      1.05256612	      0.29623451	    -11.81044285	      1.15594573	      2.00741397	    -18.44458754	     14.87477536	     -3.18597974	      8.62630792	     24.00770090	     -1.81876777	     -1.90621430	    -13.42644790	      4.65310896	      6.68963115	      9.68110774	    -11.27482416	      2.81142814	      2.43748869
      1.05400000	     -1.11925708	     -0.23916103	     -2.65096151	     -0.04539125	      1.05243504	      0.29572554	    -11.67395871	      1.08178985	      1.89024731	    -19.47476209	     14.50321556	     -2.92863378	      8.72360090	     24.04450469	     -1.78530645	     -1.79292151	    -14.27088454	      4.49402236	      6.51362028	      9.67201068	    -11.28413845	      2.77877530	      2.44926921
      1.05816667	     -1.07778644	     -0.23280619	     -2.70343890	     -0.03926866	      1.05239047	      0.29519586	    -11.49851260	      0.97759225	      1.72165064	    -20.59269719	     14.14066175	     -2.62836538	      8.98195013	     24.04644954	     -1.72701353	     -1.66241654	    -15.06679022	      4.33025412	      6.29154051	      9.64921578	    -11.29791313	      2.72763176	      2.45546168
      1.06233333	     -1.00181897	     -0.24298005	     -2.75072684	     -0.03316632	      1.05248697	      0.29463795	    -11.34339607	      0.88689106	      1.57245798	    -21.71302329	     13.57764327	     -2.41260644	     12.09377746	     23.98805935	     -1.67372416	     -1.46641464	    -15.82836135	      4.21741691	      5.97260597	      9.36899260	    -11.36950367	      2.69232105	      2.43157029
      1.06650000	     -0.96641501	     -0.26765411	     -2.80141889	     -0.02703288	      1.05259227	      0.29411672	    -11.11087911	      0.81514098	      1.43423584	    -22.89571808	     12.96366791	     -2.19895622	     12.14937178	     23.97377976	     -1.65749483	     -1.39865177	    -16.59734150	      4.12727169	      5.91347246	      9.36180069	    -11.38557364	      2.66860756	      2.45101311
      1.07066667	     -0.95161597	     -0.27797446	     -2.84988035	     -0.02091754	      1.05271022	      0.29355702	    -10.80154108	      0.71654052	      1.24446293	    -24.17867005	     12.41872766	     -1.91664308	     12.36211939	     23.95927962	     -1.61792897	     -1.29904149	    -17.32603171	      4.06203597	      5.74648356	      9.33456130	    -11.37296916	      2.62799575	      2.45681467
      1.07483333	     -0.91660177	     -0.29324325	     -2.89112002	     -0.01481388	      1.05293660	      0.29295604	    -10.48199753	      0.61395384	      1.02911228	    -25.50389678	     11.76876675	     -1.64189245	     12.68269552	     23.88898912	     -1.57320196	     -1.16647251	    -17.98621674	      4.03172161	      5.57296238	      9.29232109	    -11.38189150	      2.62142654	      2.46466766
      1.07900000	     -0.82231200	     -0.29634212	     -2.93166632	     -0.00874863	      1.05335240	      0.29237773	    -10.20354350	      0.49457047	      0.83392386	    -26.83833865	     10.94066803	     -1.48092536	     16.16796323	     23.71497349	     -1.50624943	     -0.99704562	    -18.56836972	      4.02987419	      5.31815687	      8.80446855	    -11.48319733	      2.56966637	      2.43426130
      1.08316667	     -0.81856364	     -0.31127994	     -2.98202212	     -0.00264474	      1.05366201	      0.29183769	     -9.78329310	      0.38941069	      0.64389956	    -28.25707779	     10.16272044	     -1.27189354	     16.22750141	     23.63706103	     -1.47768535	     -0.95336700	    -19.15512744	      4.06613007	      5.27528551	      8.79532450	    -11.45307440	      2.54211076	      2.43542700
      1.08733333	     -0.77185948	     -0.31670915	     -3.02580954	      0.00340962	      1.05410940	      0.29127883	     -9.37781439	      0.26636337	      0.44543969	    -29.71040414	      9.31690831	     -1.06502581	     16.31210930	     23.47365944	     -1.42490648	     -0.85496443	    -19.65964861	      4.13707340	      5.16108154	      8.78119216	    -11.48533736	      2.49549483	      2.42100877
      1.09150000	     -0.74177793	     -0.30334022	     -3.06566290	      0.00943496	      1.05458368	      0.29070805	     -8.91017155	      0.11587814	      0.21788622	    -31.23138628	      8.49801404	     -0.85727478	     16.55689207	     23.30203170	     -1.34521720	     -0.74194136	    -20.10890886	      4.18610933	      4.95207545	      8.73445851	    -11.49487915	      2.43349118	      2.40582230
      1.09566667	     -0.67163114	     -0.29051102	     -3.10233684	      0.01541899	      1.05519232	      0.29013837	     -8.46489115	     -0.03866980	      0.00241781	    -32.75343595	      7.52841788	     -0.73565261	     19.02127546	     23.04648081	     -1.25618554	     -0.59367306	    -20.47246748	      4.26825658	      4.70702721	      8.23998582	    -11.56827869	      2.37995800	      2.33943766
      1.09983333	     -0.61836141	     -0.27859767	     -3.15471414	      0.02139013	      1.05580573	      0.28964335	     -7.96800552	     -0.18816782	     -0.17554815	    -34.32184376	      6.58195318	     -0.64357544	     19.03684441	     22.80368156	     -1.19435666	     -0.56685403	    -20.83310461	      4.44735940	      4.69045711	      8.23750481	    -11.60968247	      2.30602970	      2.32034952
      1.10400000	     -0.60287915	     -0.26007460	     -3.19668745	      0.02732824	      1.05639972	      0.28913050	     -7.39618329	     -0.34515057	     -0.37092647	    -35.93072078	      5.63833748	     -0.59043326	     19.10057824	     22.57863345	     -1.11535075	     -0.49805023	    -21.14104882	      4.59143162	      4.56024517	      8.21559060	    -11.60745065	      2.23614750	      2.30093565
      1.10816667	     -0.53226892	     -0.22477337	     -3.24885525	      0.03322657	      1.05714444	      0.28866324	     -6.86281357	     -0.52429250	     -0.54461812	    -37.54307622	      4.66358845	     -0.54143352	     19.13015924	     22.25580370	     -1.01927557	     -0.44041438	    -21.37041905	      4.78081355	      4.46258608	      8.20296722	    -11.67862597	      2.14288620	      2.25445009
      1.11233333	     -0.50596526	     -0.18961764	     -3.29820896	      0.03910306	      1.05784748	      0.28820200	     -6.25555900	     -0.69875017	     -0.71067818	    -39.17498389	      3.68198916	     -0.56981085	     19.16279411	     21.96334529	     -0.92224159	     -0.36604284	    -21.56272842	      4.96480665	      4.32733702	      8.18276958	    -11.69093954	      2.05026483	      2.20773652
      1.11650000	     -0.45908857	     -0.14851393	     -3.34439882	      0.04490928	      1.05861388	      0.28776294	     -5.64609750	     -0.87682808	     -0.87505078	    -40.81736104	      2.71465516	     -0.68306182	     19.20381143	     21.63368437	     -0.81579789	     -0.29188190	    -21.71627040	      5.13154385	      4.14160863	      8.14411040	    -11.74407553	      1.94960046	      2.15869918
      1.12066667	     -0.43530106	     -0.10292342	     -3.39575752	      0.05071635	      1.05937424	      0.28735300	     -4.99694509	     -1.05618102	     -1.02234489	    -42.45164512	      1.75573737	     -0.81833712	     19.22080028	     21.30604612	     -0.70844624	     -0.22133857	    -21.82624549	      5.33730295	      3.99393417	      8.10326882	    -11.76294725	      1.84312182	      2.10090775
      1.12483333	     -0.40266578	     -0.04950197	     -3.45204891	      0.05648351	      1.06017897	      0.28697933	     -4.34160030	     -1.23917550	     -1.15416461	    -44.07435560	      0.82332786	     -1.01469123	     19.20881898	     20.95050003	     -0.59458775	     -0.15724209	    -21.89648890	      5.54998473	      3.84133226	      8.05673566	    -11.79570013	      1.73049980	      2.04136699
